<svg version="1.1" id="_x30_" xmlns="http://www.w3.org/2000/svg" xmlns:xlink="http://www.w3.org/1999/xlink" x="0px" y="0px"
	 viewBox="0 0 512 512" style="enable-background:new 0 0 512 512;" xml:space="preserve">
<g>
	<rect style="opacity:0;fill:#FFFFFF;" width="512" height="512"/>
	<path style="opacity:0.1;fill:#231815;" d="M447.744,250.573l-73.421-73.37L354.15,157.03c-2.714-0.819-5.632-1.229-8.653-1.229
		h-55.296c-3.994,0-6.4,0-6.4,0v15.718c0,0,8.653,0,20.224,0l14.029,29.389h-52.122l-39.161-39.211l0.095-7.534h-87.398
		l0.307,34.867l35.226-4.25l11.776,24.627l-19.558,43.418c-7.834-2.611-16.282-4.045-25.037-4.045
		c-21.965,0-41.933,8.96-56.269,23.296c-14.387,14.387-23.347,34.355-23.347,56.32c0,13.107,3.226,25.549,8.909,36.454
		l34.253,34.304L218.573,512H512V314.829L447.744,250.573z"/>
	<g>
		<g>
			<path style="fill:#E8D4C0;" d="M209.185,328.388c0,37.002-30.002,67.008-67.008,67.008c-37.01,0-67.007-30.005-67.007-67.008
				c0-37.003,29.998-67.005,67.007-67.005C179.183,261.383,209.185,291.385,209.185,328.388z"/>
			<path style="fill:#FFFFFF;" d="M209.185,328.388c0,37.002-30.002,67.008-67.008,67.008c-37.01,0-67.007-30.005-67.007-67.008
				c0-37.003,29.998-67.005,67.007-67.005C179.183,261.383,209.185,291.385,209.185,328.388z"/>
			<path style="fill:#727171;" d="M221.389,320.512c-1.843-18.842-10.291-35.789-22.938-48.435
				c-4.966-4.966-10.65-9.318-16.896-12.851c-4.506-2.611-9.267-4.762-14.336-6.4c-7.834-2.611-16.282-4.045-25.037-4.045
				c-21.965,0-41.933,8.96-56.269,23.296c-14.387,14.387-23.347,34.355-23.347,56.32c0,13.107,3.226,25.549,8.909,36.454
				c3.789,7.373,8.653,14.029,14.438,19.814c5.786,5.786,12.442,10.701,19.814,14.49c10.906,5.632,23.347,8.858,36.454,8.806
				c21.965,0.051,41.933-8.909,56.269-23.296c12.646-12.595,21.094-29.645,22.938-48.435c0.256-2.56,0.358-5.171,0.358-7.834
				C221.747,325.734,221.645,323.123,221.389,320.512z M196.608,328.397c0,2.662-0.205,5.274-0.563,7.834
				c-1.69,11.878-7.27,22.477-15.411,30.618c-9.882,9.882-23.398,15.923-38.451,15.974c-15.053-0.051-28.621-6.093-38.502-15.974
				c-9.83-9.882-15.923-23.398-15.923-38.451s6.093-28.621,15.923-38.502c9.882-9.83,23.45-15.923,38.502-15.923
				c5.069,0,9.984,0.717,14.643,1.997c5.12,1.434,9.933,3.584,14.336,6.4c3.43,2.15,6.605,4.659,9.472,7.526
				c8.141,8.141,13.67,18.739,15.411,30.618C196.403,323.072,196.608,325.734,196.608,328.397z"/>
		</g>
		<path style="fill:#E8D4C0;" d="M443.57,326.03c0,31.725-25.715,57.445-57.45,57.445c-31.715,0-57.43-25.72-57.43-57.445
			c0-31.727,25.715-57.45,57.43-57.45C417.855,268.58,443.57,294.303,443.57,326.03z"/>
		<g>
			<path style="fill:#FFFFFF;" d="M453.13,326.03c0,37.003-29.995,67.003-67.01,67.003c-36.995,0-67.005-30-67.005-67.003
				c0-37.007,30.01-67.01,67.005-67.01C423.135,259.02,453.13,289.023,453.13,326.03z"/>
			<circle style="fill:#E8E4E2;" cx="142.176" cy="328.388" r="48.414"/>
			<path style="fill:#E8E4E2;" d="M434.54,326.03c0,26.733-21.68,48.408-48.42,48.408c-26.735,0-48.4-21.675-48.4-48.408
				c0-26.74,21.665-48.415,48.4-48.415C412.86,277.615,434.54,299.29,434.54,326.03z"/>
			<path style="fill:#727171;" d="M442.419,269.722c-14.387-14.387-34.355-23.296-56.32-23.296c-9.318,0-18.33,1.587-26.675,4.608
				c-4.966,1.741-9.728,3.994-14.182,6.707c-5.632,3.328-10.803,7.373-15.411,11.981c-14.336,14.387-23.296,34.355-23.296,56.32
				c0,21.914,8.96,41.882,23.296,56.269c14.387,14.387,34.355,23.296,56.269,23.296c21.965,0,41.933-8.909,56.32-23.296
				c14.387-14.387,23.296-34.355,23.296-56.269C465.715,304.077,456.806,284.109,442.419,269.722z M386.099,380.467
				c-15.053-0.051-28.57-6.093-38.451-15.974c-9.882-9.882-15.923-23.398-15.923-38.451c0-15.104,6.042-28.621,15.923-38.502
				c2.56-2.56,5.427-4.915,8.499-6.963c4.352-2.867,9.114-5.12,14.234-6.656c4.966-1.485,10.24-2.304,15.718-2.304
				c15.104,0,28.621,6.093,38.502,15.923c9.882,9.882,15.923,23.398,15.923,38.502c0,15.053-6.042,28.57-15.923,38.451
				S401.203,380.416,386.099,380.467z"/>
		</g>
		<path style="fill:#E17B80;" d="M394.803,325.018l-21.76-45.568l-2.662-5.53l-1.28-2.714l-4.198-8.704v-0.051l-5.478-11.418
			l-37.939-79.514l-5.376-11.213c-1.331-2.867-4.147-4.506-7.117-4.506c-1.126,0-2.304,0.256-3.379,0.768
			c-3.891,1.894-5.581,6.605-3.686,10.496l2.099,4.454l14.029,29.389H200.141l-8.653-18.125l-0.051-0.102l-10.701-22.374
			c-1.843-3.942-6.554-5.581-10.496-3.738c-3.891,1.894-5.581,6.605-3.686,10.496l8.448,17.715l4.659,9.677l7.117,14.95
			l-11.776,26.163l-7.782,17.254l-5.171,11.571l-5.222,11.571l-2.509,5.53l-18.944,42.138c-0.205,0.41-0.358,0.922-0.461,1.382
			l-0.41,1.536c-0.563,2.304,0,4.813,1.485,6.707s3.789,2.97,6.195,2.97h110.182c0.512,0,1.075-0.051,1.587-0.154h0.051
			c0.614-0.154,1.126-0.358,1.69-0.614c0.154-0.051,0.307-0.154,0.512-0.256c0.41-0.205,0.768-0.461,1.075-0.768
			c0.154-0.102,0.307-0.205,0.41-0.307c0.461-0.461,0.87-0.922,1.229-1.434l0.051-0.051l70.093-108.749l16.179,33.843l5.478,11.418
			v0.051l4.147,8.653l1.28,2.714l2.662,5.53l21.811,45.67c1.843,3.942,6.554,5.581,10.496,3.686
			C395.008,333.619,396.698,328.909,394.803,325.018z M154.01,320.512l14.694-32.614l2.458-5.53l5.222-11.571l5.171-11.571
			l5.325-11.776l8.755-19.456l25.907,54.118l18.33,38.4H154.01z M301.926,236.902l-5.274,8.243l-43.264,67.123l-7.731-16.128
			l-37.99-79.514h107.366L301.926,236.902z"/>
		<polygon style="fill:#727171;" points="226.867,154.163 226.56,178.534 191.488,182.784 175.002,184.781 139.776,189.03 
			139.469,154.163 		"/>
		<g>
			<path style="fill:#C3C4C4;" d="M332.595,155.802v15.718h-28.57c-11.571,0-20.224,0-20.224,0v-15.718c0,0,2.406,0,6.4,0H332.595z"
				/>
			<path style="fill:#727171;" d="M376.32,189.235c0,4.045-0.614,8.09-1.997,11.93c-1.382,3.84-3.533,7.475-6.554,10.496
				l-11.11-11.162c1.126-1.126,2.15-2.714,2.816-4.659c0.717-1.946,1.126-4.25,1.126-6.605c0-3.482-0.87-7.066-2.355-9.933
				c-1.536-2.867-3.635-5.018-6.195-6.349c-1.792-0.87-3.84-1.382-6.554-1.434h-12.902v-15.718h12.902
				c3.021,0,5.939,0.41,8.653,1.229c1.741,0.461,3.328,1.075,4.864,1.843c3.994,1.946,7.27,4.762,9.83,8.038
				c2.458,3.123,4.301,6.656,5.478,10.291C375.706,181.094,376.32,185.19,376.32,189.235z"/>
		</g>
	</g>
</g>
</svg>