<svg version="1.1" id="_x30_" xmlns="http://www.w3.org/2000/svg" xmlns:xlink="http://www.w3.org/1999/xlink" x="0px" y="0px"
	 viewBox="0 0 512 512" style="enable-background:new 0 0 512 512;" xml:space="preserve">
<g>
	<rect style="opacity:0;fill:#FFFFFF;" width="512" height="512"/>
	<polygon style="opacity:0.1;fill:#231815;" points="512,209.101 512,512 182.118,512 92.262,422.144 88.217,418.048 
		88.217,220.569 92.262,216.525 187.034,121.754 227.994,80.742 383.641,80.742 394.035,91.136 399.923,97.024 406.989,104.089 	"/>
	<g>
		<g>
			<g>
				<rect x="345.951" y="141.553" style="fill:#EAB528;" width="73.54" height="33.834"/>
			</g>
			<g>
				<rect x="350.235" y="97.035" style="fill:#962229;" width="73.54" height="33.834"/>
			</g>
			<g>
				<rect x="341.668" y="186.072" style="fill:#188A96;" width="73.54" height="33.834"/>
			</g>
			<g style="opacity:0.1;">
				<rect x="333.438" y="141.553" style="fill:#060001;" width="73.54" height="33.834"/>
			</g>
			<g style="opacity:0.1;">
				<rect x="333.438" y="97.035" style="fill:#060001;" width="73.54" height="33.834"/>
			</g>
			<g style="opacity:0.1;">
				<rect x="333.438" y="186.072" style="fill:#060001;" width="73.54" height="33.834"/>
			</g>
			<g>
				<rect x="120.76" y="80.719" style="fill:#F5F1E8;" width="273.271" height="350.612"/>
			</g>
			<g>
				<rect x="92.268" y="80.719" style="fill:#0D545B;" width="94.764" height="350.612"/>
			</g>
			<g>
				<rect x="88.226" y="80.719" style="fill:#F5CE35;" width="8.085" height="350.612"/>
			</g>
			<g>
				<path style="fill:#FFFFFF;" d="M165.616,109.307h-44.903v8.759h27.577l-27.529,17.711l-0.048,0.048v7.845h44.903v-8.759h-27.481
					l27.481-17.807V109.307z"/>
				<path style="fill:#FFFFFF;" d="M152.765,157.147c-0.818-1.636-1.733-2.984-2.839-3.995c-1.588-1.492-3.369-2.503-5.342-2.984
					c-1.925-0.529-4.428-0.77-7.412-0.77c-2.984,0-5.439,0.241-7.412,0.77c-1.973,0.481-3.754,1.492-5.39,2.984
					c-1.059,1.011-2.021,2.358-2.84,3.995c-0.337,0.674-0.578,1.396-0.77,2.214c-0.289,1.155-0.433,2.503-0.433,3.947
					c0,1.444,0.144,2.743,0.433,3.898c0.192,0.818,0.433,1.54,0.77,2.214c0.818,1.684,1.781,3.032,2.84,4.091
					c1.588,1.492,3.369,2.503,5.342,2.984c2.021,0.481,4.476,0.722,7.46,0.722c2.984,0,5.486-0.241,7.412-0.77
					c1.973-0.481,3.754-1.492,5.342-2.936c1.107-1.059,2.021-2.406,2.839-4.091c0.818-1.636,1.203-3.706,1.203-6.112
					C153.969,160.852,153.584,158.783,152.765,157.147z M145.161,167.109c-0.866,0.866-1.973,1.396-3.369,1.588
					c-1.396,0.241-2.936,0.337-4.62,0.337c-1.684,0-3.273-0.096-4.669-0.337c-1.347-0.192-2.503-0.722-3.321-1.588
					c-0.963-0.963-1.444-2.214-1.444-3.802c0-1.588,0.481-2.84,1.444-3.802c0.818-0.866,1.973-1.396,3.321-1.588
					c1.396-0.192,2.984-0.289,4.669-0.289c1.684,0,3.225,0.096,4.62,0.289c1.396,0.193,2.503,0.722,3.369,1.588
					c0.963,0.963,1.444,2.214,1.444,3.802C146.605,164.895,146.124,166.146,145.161,167.109z"/>
				<path style="fill:#FFFFFF;" d="M152.621,183.088v-3.465h-6.209v3.465h-16.267c-1.203,0-2.358,0.193-3.465,0.529
					c-1.107,0.337-2.118,0.914-2.984,1.684c-0.866,0.818-1.588,1.781-2.166,2.984c-0.385,0.914-0.674,1.925-0.77,3.128
					c-0.048,0.385-0.048,0.77-0.048,1.203v4.476h6.979v-2.984c0-1.877,0.963-2.84,2.936-2.84h15.786v5.824h6.209v-5.824h9.722
					v-8.182H152.621z"/>
				<path style="fill:#FFFFFF;" d="M152.862,208.644c-0.722-1.733-1.829-3.225-3.273-4.476c-1.396-1.299-3.177-2.262-5.246-2.936
					c-1.781-0.626-3.85-0.962-6.16-1.011c-0.337-0.048-0.674-0.048-1.011-0.048c-3.321,0-6.064,0.433-8.23,1.299
					c-2.166,0.866-3.85,1.973-5.15,3.417c-1.299,1.396-2.166,3.032-2.695,4.861c-0.096,0.481-0.241,0.914-0.337,1.396
					c-0.289,1.396-0.433,2.791-0.433,4.235c0,0.914,0.048,1.733,0.144,2.551c0.048,0.481,0.096,0.963,0.193,1.396
					c0.048,0.144,0.048,0.289,0.096,0.433c0.192,1.059,0.481,1.973,0.866,2.84c0.481,0.963,1.011,1.877,1.636,2.743
					c0.674,0.818,1.444,1.684,2.262,2.503l4.861-4.957c-1.011-1.059-1.781-2.118-2.31-3.176c-0.529-1.059-0.77-2.454-0.77-4.283
					c0-2.358,0.674-4.139,2.021-5.342c1.396-1.251,3.128-1.829,5.294-1.829v20.551h3.465c2.31,0,4.428-0.337,6.401-0.963
					c1.925-0.626,3.61-1.54,5.053-2.743c1.396-1.251,2.455-2.743,3.273-4.524c0.77-1.781,1.155-3.802,1.155-6.112
					C153.969,212.349,153.584,210.424,152.862,208.644z M146.172,217.932c-0.626,0.914-1.444,1.588-2.406,2.021
					c-0.626,0.337-1.155,0.481-1.685,0.578c-0.529,0.096-1.155,0.144-1.877,0.192v-12.465c0.722,0.048,1.348,0.096,1.877,0.193
					c0.529,0.048,1.059,0.241,1.685,0.529c0.962,0.481,1.781,1.155,2.406,2.07c0.674,0.914,0.963,2.07,0.963,3.417
					C147.134,215.863,146.846,217.018,146.172,217.932z"/>
				<path style="fill:#FFFFFF;" d="M120.712,234.296v18.77c0,0.529,0,1.059,0.048,1.54c0.144,1.54,0.433,2.936,0.866,4.187
					c0.626,1.684,1.492,3.176,2.599,4.331c1.107,1.203,2.455,2.118,4.043,2.743c1.588,0.674,3.369,0.963,5.342,0.963
					c1.588,0,3.032-0.241,4.283-0.674c1.251-0.433,2.406-1.155,3.465-2.118c0.433-0.433,0.866-0.915,1.203-1.348
					c0.337-0.481,0.722-1.155,1.203-2.021c2.021,3.706,5.198,5.535,9.529,5.535c1.877,0,3.561-0.337,5.102-0.962
					c1.492-0.674,2.791-1.588,3.85-2.792c1.107-1.203,1.925-2.647,2.503-4.38c0.577-1.733,0.866-3.658,0.866-5.727v-18.048H120.712z
					 M139.578,252.199c0,1.829-0.481,3.225-1.444,4.283c-0.962,1.059-2.31,1.588-4.043,1.588s-3.08-0.529-4.043-1.588
					c-1.011-1.059-1.492-2.454-1.492-4.283v-9.144h11.021V252.199z M157.819,251.622c0,1.829-0.481,3.225-1.396,4.283
					c-0.914,1.011-2.166,1.54-3.802,1.54c-1.588,0-2.84-0.529-3.754-1.54c-0.915-1.059-1.396-2.454-1.396-4.283v-8.567h10.348
					V251.622z"/>
				<path style="fill:#FFFFFF;" d="M152.765,278.814c-0.818-1.636-1.733-2.984-2.839-4.043c-1.588-1.444-3.369-2.454-5.342-2.936
					c-1.925-0.529-4.428-0.77-7.412-0.77c-2.984,0-5.439,0.241-7.412,0.77c-1.973,0.481-3.754,1.492-5.39,2.936
					c-1.059,1.059-2.021,2.406-2.84,4.043c-0.337,0.674-0.578,1.396-0.77,2.214c-0.289,1.155-0.433,2.454-0.433,3.898
					c0,1.444,0.144,2.743,0.433,3.898c0.192,0.818,0.433,1.588,0.77,2.262c0.818,1.636,1.781,3.032,2.84,4.043
					c1.588,1.54,3.369,2.551,5.342,3.032c2.021,0.481,4.476,0.722,7.46,0.722c2.984,0,5.486-0.289,7.412-0.77
					c1.973-0.481,3.754-1.492,5.342-2.984c1.107-1.011,2.021-2.406,2.839-4.043c0.818-1.684,1.203-3.706,1.203-6.16
					S153.584,280.451,152.765,278.814z M145.161,288.777c-0.866,0.866-1.973,1.348-3.369,1.588c-1.396,0.193-2.936,0.289-4.62,0.289
					c-1.684,0-3.273-0.096-4.669-0.289c-1.347-0.241-2.503-0.722-3.321-1.588c-0.963-0.963-1.444-2.262-1.444-3.85
					c0-1.54,0.481-2.791,1.444-3.802c0.818-0.818,1.973-1.348,3.321-1.54c1.396-0.241,2.984-0.337,4.669-0.337
					c1.684,0,3.225,0.096,4.62,0.337c1.396,0.193,2.503,0.722,3.369,1.54c0.963,1.011,1.444,2.262,1.444,3.802
					C146.605,286.515,146.124,287.814,145.161,288.777z"/>
				<path style="fill:#FFFFFF;" d="M152.765,310.338c-0.818-1.636-1.733-2.984-2.839-4.043c-1.107-1.011-2.262-1.781-3.562-2.31
					c-0.577-0.289-1.155-0.481-1.781-0.626c-1.925-0.529-4.428-0.77-7.412-0.77c-2.984,0-5.439,0.241-7.412,0.77
					c-1.973,0.481-3.754,1.492-5.39,2.936c-1.059,1.059-2.021,2.406-2.84,4.043c-0.337,0.674-0.578,1.396-0.77,2.214
					c-0.289,1.155-0.433,2.454-0.433,3.898c0,1.444,0.144,2.791,0.433,3.947c0.192,0.818,0.433,1.54,0.77,2.214
					c0.722,1.492,1.588,2.743,2.503,3.706c0.096,0.144,0.241,0.289,0.337,0.385c1.588,1.492,3.369,2.503,5.342,2.984
					c2.021,0.481,4.476,0.722,7.46,0.722c2.984,0,5.486-0.241,7.412-0.77c1.973-0.481,3.754-1.492,5.342-2.936
					c1.107-1.059,2.021-2.406,2.839-4.091c0.818-1.636,1.203-3.706,1.203-6.16C153.969,314.044,153.584,311.974,152.765,310.338z
					 M145.161,320.301c-0.866,0.866-1.973,1.396-3.369,1.588c-1.396,0.193-2.936,0.337-4.62,0.337c-1.684,0-3.273-0.144-4.669-0.337
					c-1.107-0.144-2.118-0.578-2.888-1.203c-0.144-0.096-0.289-0.241-0.433-0.385c-0.963-0.963-1.444-2.262-1.444-3.85
					c0-1.54,0.481-2.791,1.444-3.754c0.818-0.866,1.973-1.396,3.321-1.588c1.396-0.193,2.984-0.337,4.669-0.337
					c0.818,0,1.588,0.048,2.31,0.096c0.818,0.048,1.588,0.144,2.31,0.241c1.396,0.193,2.503,0.722,3.369,1.588
					c0.963,0.963,1.444,2.214,1.444,3.754C146.605,318.039,146.124,319.338,145.161,320.301z"/>
				<path style="fill:#FFFFFF;" d="M165.616,335.509h-44.903v8.182h9.818l3.898,3.465l-13.668,8.037l-0.048,0.048v10.155
					l0.048-0.048l19.588-12.561l13.235,11.743v-9.914l-13.428-10.925h25.46V335.509z"/>
			</g>
			<g>
				<path style="fill:#FFFFFF;" d="M165.616,109.307h-44.903v8.759h27.577l-27.529,17.711l-0.048,0.048v7.845h44.903v-8.759h-27.481
					l27.481-17.807V109.307z"/>
				<path style="fill:#FFFFFF;" d="M152.765,157.147c-0.818-1.636-1.733-2.984-2.839-3.995c-1.588-1.492-3.369-2.503-5.342-2.984
					c-1.925-0.529-4.428-0.77-7.412-0.77c-2.984,0-5.439,0.241-7.412,0.77c-1.973,0.481-3.754,1.492-5.39,2.984
					c-1.059,1.011-2.021,2.358-2.84,3.995c-0.337,0.674-0.578,1.396-0.77,2.214c-0.289,1.155-0.433,2.503-0.433,3.947
					c0,1.444,0.144,2.743,0.433,3.898c0.192,0.818,0.433,1.54,0.77,2.214c0.818,1.684,1.781,3.032,2.84,4.091
					c1.588,1.492,3.369,2.503,5.342,2.984c2.021,0.481,4.476,0.722,7.46,0.722c2.984,0,5.486-0.241,7.412-0.77
					c1.973-0.481,3.754-1.492,5.342-2.936c1.107-1.059,2.021-2.406,2.839-4.091c0.818-1.636,1.203-3.706,1.203-6.112
					C153.969,160.852,153.584,158.783,152.765,157.147z M145.161,167.109c-0.866,0.866-1.973,1.396-3.369,1.588
					c-1.396,0.241-2.936,0.337-4.62,0.337c-1.684,0-3.273-0.096-4.669-0.337c-1.347-0.192-2.503-0.722-3.321-1.588
					c-0.963-0.963-1.444-2.214-1.444-3.802c0-1.588,0.481-2.84,1.444-3.802c0.818-0.866,1.973-1.396,3.321-1.588
					c1.396-0.192,2.984-0.289,4.669-0.289c1.684,0,3.225,0.096,4.62,0.289c1.396,0.193,2.503,0.722,3.369,1.588
					c0.963,0.963,1.444,2.214,1.444,3.802C146.605,164.895,146.124,166.146,145.161,167.109z"/>
				<path style="fill:#FFFFFF;" d="M152.621,183.088v-3.465h-6.209v3.465h-16.267c-1.203,0-2.358,0.193-3.465,0.529
					c-1.107,0.337-2.118,0.914-2.984,1.684c-0.866,0.818-1.588,1.781-2.166,2.984c-0.385,0.914-0.674,1.925-0.77,3.128
					c-0.048,0.385-0.048,0.77-0.048,1.203v4.476h6.979v-2.984c0-1.877,0.963-2.84,2.936-2.84h15.786v5.824h6.209v-5.824h9.722
					v-8.182H152.621z"/>
				<path style="fill:#FFFFFF;" d="M152.862,208.644c-0.722-1.733-1.829-3.225-3.273-4.476c-1.396-1.299-3.177-2.262-5.246-2.936
					c-1.781-0.626-3.85-0.962-6.16-1.011c-0.337-0.048-0.674-0.048-1.011-0.048c-3.321,0-6.064,0.433-8.23,1.299
					c-2.166,0.866-3.85,1.973-5.15,3.417c-1.299,1.396-2.166,3.032-2.695,4.861c-0.096,0.481-0.241,0.914-0.337,1.396
					c-0.289,1.396-0.433,2.791-0.433,4.235c0,0.914,0.048,1.733,0.144,2.551c0.048,0.481,0.096,0.963,0.193,1.396
					c0.048,0.144,0.048,0.289,0.096,0.433c0.192,1.059,0.481,1.973,0.866,2.84c0.481,0.963,1.011,1.877,1.636,2.743
					c0.674,0.818,1.444,1.684,2.262,2.503l4.861-4.957c-1.011-1.059-1.781-2.118-2.31-3.176c-0.529-1.059-0.77-2.454-0.77-4.283
					c0-2.358,0.674-4.139,2.021-5.342c1.396-1.251,3.128-1.829,5.294-1.829v20.551h3.465c2.31,0,4.428-0.337,6.401-0.963
					c1.925-0.626,3.61-1.54,5.053-2.743c1.396-1.251,2.455-2.743,3.273-4.524c0.77-1.781,1.155-3.802,1.155-6.112
					C153.969,212.349,153.584,210.424,152.862,208.644z M146.172,217.932c-0.626,0.914-1.444,1.588-2.406,2.021
					c-0.626,0.337-1.155,0.481-1.685,0.578c-0.529,0.096-1.155,0.144-1.877,0.192v-12.465c0.722,0.048,1.348,0.096,1.877,0.193
					c0.529,0.048,1.059,0.241,1.685,0.529c0.962,0.481,1.781,1.155,2.406,2.07c0.674,0.914,0.963,2.07,0.963,3.417
					C147.134,215.863,146.846,217.018,146.172,217.932z"/>
				<path style="fill:#FFFFFF;" d="M120.712,234.296v18.77c0,0.529,0,1.059,0.048,1.54c0.144,1.54,0.433,2.936,0.866,4.187
					c0.626,1.684,1.492,3.176,2.599,4.331c1.107,1.203,2.455,2.118,4.043,2.743c1.588,0.674,3.369,0.963,5.342,0.963
					c1.588,0,3.032-0.241,4.283-0.674c1.251-0.433,2.406-1.155,3.465-2.118c0.433-0.433,0.866-0.915,1.203-1.348
					c0.337-0.481,0.722-1.155,1.203-2.021c2.021,3.706,5.198,5.535,9.529,5.535c1.877,0,3.561-0.337,5.102-0.962
					c1.492-0.674,2.791-1.588,3.85-2.792c1.107-1.203,1.925-2.647,2.503-4.38c0.577-1.733,0.866-3.658,0.866-5.727v-18.048H120.712z
					 M139.578,252.199c0,1.829-0.481,3.225-1.444,4.283c-0.962,1.059-2.31,1.588-4.043,1.588s-3.08-0.529-4.043-1.588
					c-1.011-1.059-1.492-2.454-1.492-4.283v-9.144h11.021V252.199z M157.819,251.622c0,1.829-0.481,3.225-1.396,4.283
					c-0.914,1.011-2.166,1.54-3.802,1.54c-1.588,0-2.84-0.529-3.754-1.54c-0.915-1.059-1.396-2.454-1.396-4.283v-8.567h10.348
					V251.622z"/>
				<path style="fill:#FFFFFF;" d="M152.765,278.814c-0.818-1.636-1.733-2.984-2.839-4.043c-1.588-1.444-3.369-2.454-5.342-2.936
					c-1.925-0.529-4.428-0.77-7.412-0.77c-2.984,0-5.439,0.241-7.412,0.77c-1.973,0.481-3.754,1.492-5.39,2.936
					c-1.059,1.059-2.021,2.406-2.84,4.043c-0.337,0.674-0.578,1.396-0.77,2.214c-0.289,1.155-0.433,2.454-0.433,3.898
					c0,1.444,0.144,2.743,0.433,3.898c0.192,0.818,0.433,1.588,0.77,2.262c0.818,1.636,1.781,3.032,2.84,4.043
					c1.588,1.54,3.369,2.551,5.342,3.032c2.021,0.481,4.476,0.722,7.46,0.722c2.984,0,5.486-0.289,7.412-0.77
					c1.973-0.481,3.754-1.492,5.342-2.984c1.107-1.011,2.021-2.406,2.839-4.043c0.818-1.684,1.203-3.706,1.203-6.16
					S153.584,280.451,152.765,278.814z M145.161,288.777c-0.866,0.866-1.973,1.348-3.369,1.588c-1.396,0.193-2.936,0.289-4.62,0.289
					c-1.684,0-3.273-0.096-4.669-0.289c-1.347-0.241-2.503-0.722-3.321-1.588c-0.963-0.963-1.444-2.262-1.444-3.85
					c0-1.54,0.481-2.791,1.444-3.802c0.818-0.818,1.973-1.348,3.321-1.54c1.396-0.241,2.984-0.337,4.669-0.337
					c1.684,0,3.225,0.096,4.62,0.337c1.396,0.193,2.503,0.722,3.369,1.54c0.963,1.011,1.444,2.262,1.444,3.802
					C146.605,286.515,146.124,287.814,145.161,288.777z"/>
				<path style="fill:#FFFFFF;" d="M152.765,310.338c-0.818-1.636-1.733-2.984-2.839-4.043c-1.107-1.011-2.262-1.781-3.562-2.31
					c-0.577-0.289-1.155-0.481-1.781-0.626c-1.925-0.529-4.428-0.77-7.412-0.77c-2.984,0-5.439,0.241-7.412,0.77
					c-1.973,0.481-3.754,1.492-5.39,2.936c-1.059,1.059-2.021,2.406-2.84,4.043c-0.337,0.674-0.578,1.396-0.77,2.214
					c-0.289,1.155-0.433,2.454-0.433,3.898c0,1.444,0.144,2.791,0.433,3.947c0.192,0.818,0.433,1.54,0.77,2.214
					c0.722,1.492,1.588,2.743,2.503,3.706c0.096,0.144,0.241,0.289,0.337,0.385c1.588,1.492,3.369,2.503,5.342,2.984
					c2.021,0.481,4.476,0.722,7.46,0.722c2.984,0,5.486-0.241,7.412-0.77c1.973-0.481,3.754-1.492,5.342-2.936
					c1.107-1.059,2.021-2.406,2.839-4.091c0.818-1.636,1.203-3.706,1.203-6.16C153.969,314.044,153.584,311.974,152.765,310.338z
					 M145.161,320.301c-0.866,0.866-1.973,1.396-3.369,1.588c-1.396,0.193-2.936,0.337-4.62,0.337c-1.684,0-3.273-0.144-4.669-0.337
					c-1.107-0.144-2.118-0.578-2.888-1.203c-0.144-0.096-0.289-0.241-0.433-0.385c-0.963-0.963-1.444-2.262-1.444-3.85
					c0-1.54,0.481-2.791,1.444-3.754c0.818-0.866,1.973-1.396,3.321-1.588c1.396-0.193,2.984-0.337,4.669-0.337
					c0.818,0,1.588,0.048,2.31,0.096c0.818,0.048,1.588,0.144,2.31,0.241c1.396,0.193,2.503,0.722,3.369,1.588
					c0.963,0.963,1.444,2.214,1.444,3.754C146.605,318.039,146.124,319.338,145.161,320.301z"/>
				<path style="fill:#FFFFFF;" d="M165.616,335.509h-44.903v8.182h9.818l3.898,3.465l-13.668,8.037l-0.048,0.048v10.155
					l0.048-0.048l19.588-12.561l13.235,11.743v-9.914l-13.428-10.925h25.46V335.509z"/>
			</g>
			<g>
				<rect x="187.019" y="250.68" style="fill:#565657;" width="115.224" height="15.925"/>
			</g>
			<g>
				<rect x="215.549" y="308.29" style="fill:#565657;" width="154.627" height="2.248"/>
			</g>
			<g>
				<rect x="215.549" y="350.445" style="fill:#565657;" width="154.627" height="2.248"/>
			</g>
			<g>
				<rect x="215.549" y="392.6" style="fill:#565657;" width="154.627" height="2.248"/>
			</g>
		</g>
		<polygon style="opacity:0.05;fill:#231815;" points="419.491,141.553 419.491,175.387 394.031,175.387 394.031,186.072 
			415.207,186.072 415.207,219.906 394.031,219.906 394.031,431.332 132.937,431.332 132.937,404.909 165.471,372.375 
			168.744,369.15 184.193,353.701 187.033,350.862 191.075,346.819 227.364,310.53 229.626,308.268 231.743,306.151 
			244.401,293.541 287.283,250.659 333.438,204.456 341.668,196.227 351.823,186.072 396.341,141.553 		"/>
	</g>
	<polygon style="opacity:0.05;fill:#231815;" points="434.483,115.098 434.483,122.88 416.666,122.88 424.448,115.098 	"/>
</g>
</svg>