<?xml version="1.0" encoding="iso-8859-1"?>
<!-- Generator: Adobe Illustrator 18.0.0, SVG Export Plug-In . SVG Version: 6.00 Build 0)  -->
<!DOCTYPE svg PUBLIC "-//W3C//DTD SVG 1.1//EN" "http://www.w3.org/Graphics/SVG/1.1/DTD/svg11.dtd">
<svg version="1.1" id="_x34_" xmlns="http://www.w3.org/2000/svg" xmlns:xlink="http://www.w3.org/1999/xlink" x="0px" y="0px"
	 viewBox="0 0 512 512" style="enable-background:new 0 0 512 512;" xml:space="preserve">
<g>
	<g>
		<path style="fill:#D7D7D7;" d="M512,77.426l-0.309,283.586c0,12.749-10.277,23.181-22.718,23.181H23.027
			c-2.241,0-4.327-0.309-6.414-1.005c-7.264-2.164-12.982-7.959-15.3-15.301c-0.618-2.163-1.005-4.48-1.005-6.876L0,77.426
			C0,34.849,34.077,0,75.649,0h360.703c15.377,0,29.749,4.79,41.726,12.981c7.959,5.409,14.836,12.287,20.322,20.322
			C506.977,45.821,512,61.121,512,77.426z"/>
		<path style="fill:#7CC1C6;" d="M441.882,23.527c-0.34-0.116-0.681-0.194-0.946-0.271h-4.615h-65.903
			c-4.931,0-8.929,4.087-8.929,9.128v78.01c0,52.406-21.042,47.803-46.761,47.803h-47.365h-8.955h-4.816h-8.956h-47.366
			c-25.718,0-46.76-0.232-46.76-47.803v-78.01c0-5.041-3.997-9.128-8.928-9.128H75.678h-4.615c-0.265,0.077-0.606,0.155-0.946,0.271
			c-26.596,2.862-47.404,25.951-47.404,53.875v38.676l0.338,206.259v29.548c0,5.041,3.997,9.127,8.929,9.127h28.903h168.621h15.16
			h22.673h15.16h168.621h28.904c4.93,0,8.928-4.087,8.928-9.127v-29.548l0.337-206.259V77.402
			C489.286,49.479,468.478,26.389,441.882,23.527z"/>
		<g>
			<g>
				<path style="fill:#FEFFFF;" d="M346.405,61.932v56.39c0,12.26-10.016,22.239-22.239,22.239H187.833
					c-12.26,0-22.239-9.979-22.239-22.239v-56.39c0-21.272,17.404-38.676,38.676-38.676h103.458
					C329,23.256,346.405,40.66,346.405,61.932z"/>
				<g>
					<g>
						<polygon style="fill:#C3C2C2;" points="336.152,55.356 341.639,56.287 335.971,85.68 330.846,84.817 						"/>
						<polygon style="fill:#C3C2C2;" points="321.353,52.858 326.842,53.782 322.153,83.348 317.029,82.479 						"/>
						<polygon style="opacity:0;fill:#C3C2C2;" points="306.458,51.033 311.983,51.697 308.279,81.401 303.119,80.781 						"/>
					</g>
					<g>
						<polygon style="fill:#C3C2C2;" points="301.654,43.127 307.27,43.798 302.277,88.285 297.21,87.673 						"/>
						<polygon style="fill:#C3C2C2;" points="285.971,49.211 291.522,49.61 289.172,79.452 283.988,79.081 						"/>
						<polygon style="fill:#C3C2C2;" points="270.987,48.454 276.551,48.589 275.191,78.493 269.995,78.372 						"/>
						<polygon style="opacity:0;fill:#C3C2C2;" points="255.985,48.099 261.548,48.228 261.181,78.161 255.985,78.034 						"/>
					</g>
					<g>
						<polygon style="fill:#C3C2C2;" points="235.418,48.589 240.982,48.454 241.974,78.372 236.778,78.493 						"/>
						<polygon style="fill:#C3C2C2;" points="220.447,49.61 225.999,49.211 227.981,79.081 222.797,79.452 						"/>
						<polygon style="opacity:0;fill:#C3C2C2;" points="205.511,51.033 211.038,50.373 214.01,80.16 208.849,80.781 						"/>
					</g>
					<g>
						<polygon style="fill:#C3C2C2;" points="199.084,44.471 204.699,43.798 209.692,88.285 204.624,88.894 						"/>
						<polygon style="fill:#C3C2C2;" points="185.127,53.782 190.616,52.858 194.94,82.479 189.815,83.348 						"/>
						<polygon style="fill:#C3C2C2;" points="170.329,56.287 175.817,55.356 181.123,84.817 175.997,85.68 						"/>
						<polygon style="opacity:0;fill:#C3C2C2;" points="167.375,87.535 165.595,87.922 165.595,79.22 						"/>
					</g>
				</g>
			</g>
			<g>
				<circle style="fill:#DC4B58;" cx="254.722" cy="115.898" r="11.907"/>
				<polygon style="fill:#DC4B58;" points="254.721,43.987 251.098,118.134 254.721,118.134 258.345,118.134 				"/>
			</g>
		</g>
		<path style="fill:#D5D6D5;" d="M298.737,254.422v129.797h-85.474V254.422c0-11.603,9.476-21.078,21.039-21.078h43.395
			c6.846,0,12.995,3.326,16.823,8.47C297.19,245.333,298.737,249.704,298.737,254.422z"/>
		<path style="fill:#D7D7D7;" d="M298.737,263.782v120.437h-85.474V263.782c0-11.603,9.476-21.079,21.039-21.079h43.395
			c6.846,0,12.995,3.327,16.823,8.47C297.19,254.693,298.737,259.063,298.737,263.782z"/>
	</g>
	<path style="opacity:0.06;fill:#040000;" d="M498.4,33.304c-5.486-8.036-12.363-14.914-20.322-20.322
		C466.101,4.79,451.728,0,436.352,0H256v384.218h42.736v-0.026h190.237c12.441,0,22.718-10.432,22.718-23.181L512,77.426
		C512,61.121,506.977,45.821,498.4,33.304z"/>
</g>
</svg>