<svg version="1.1" id="_x30_" xmlns="http://www.w3.org/2000/svg" xmlns:xlink="http://www.w3.org/1999/xlink" x="0px" y="0px"
	 viewBox="0 0 512 512" style="enable-background:new 0 0 512 512;" xml:space="preserve">
<g>
	<rect style="opacity:0;fill:#FFFFFF;" width="512" height="512"/>
	<path style="opacity:0.1;fill:#040000;" d="M512,246.17V512H226.765L97.382,382.618L87.245,372.48
		c-0.41-1.433-0.666-2.969-0.666-4.556L86.374,180.02c0-28.211,22.579-51.303,50.125-51.303h239.001
		c10.189,0,19.712,3.174,27.648,8.601L512,246.17z"/>
	<g>
		<path style="fill:#D7D7D7;" d="M425.626,180.02l-0.205,187.904c0,8.448-6.81,15.36-15.053,15.36H101.632
			c-1.485,0-2.867-0.205-4.25-0.666c-4.813-1.434-8.602-5.274-10.137-10.138c-0.41-1.433-0.666-2.969-0.666-4.556L86.374,180.02
			c0-28.211,22.579-51.303,50.125-51.303h239.001c10.189,0,19.712,3.174,27.648,8.601c5.274,3.584,9.831,8.141,13.466,13.466
			C422.297,159.079,425.626,169.216,425.626,180.02z"/>
		<path style="fill:#7CC1C6;" d="M379.166,144.307c-0.225-0.077-0.451-0.128-0.627-0.179h-3.058h-43.668
			c-3.267,0-5.916,2.708-5.916,6.048v51.689c0,34.724-13.943,31.674-30.984,31.674h-31.384h-5.933h-3.191h-5.934h-31.385
			c-17.041,0-30.983-0.154-30.983-31.674v-51.689c0-3.34-2.649-6.048-5.916-6.048h-43.668h-3.058
			c-0.176,0.051-0.402,0.103-0.627,0.179c-17.623,1.896-31.41,17.195-31.41,35.698v25.627l0.224,136.667v19.579
			c0,3.34,2.649,6.048,5.916,6.048h19.151h111.728h10.045h15.023h10.045h111.728h19.152c3.267,0,5.916-2.708,5.916-6.048v-19.579
			l0.224-136.667v-25.627C410.575,161.502,396.788,146.203,379.166,144.307z"/>
		<g>
			<g>
				<path style="fill:#FEFFFF;" d="M315.902,169.754v37.364c0,8.124-6.637,14.735-14.735,14.735h-90.334
					c-8.124,0-14.735-6.612-14.735-14.735v-37.364c0-14.095,11.532-25.627,25.627-25.627h68.551
					C304.37,144.127,315.902,155.659,315.902,169.754z"/>
				<g>
					<g>
						<polygon style="fill:#C3C2C2;" points="309.109,165.396 312.744,166.013 308.989,185.489 305.593,184.917 						"/>
						<polygon style="fill:#C3C2C2;" points="299.303,163.741 302.94,164.354 299.833,183.944 296.438,183.368 						"/>
						<polygon style="opacity:0;fill:#C3C2C2;" points="289.433,162.532 293.095,162.972 290.64,182.654 287.221,182.243 						"/>
					</g>
					<g>
						<polygon style="fill:#C3C2C2;" points="286.25,157.294 289.971,157.738 286.663,187.215 283.306,186.81 						"/>
						<polygon style="fill:#C3C2C2;" points="275.859,161.325 279.537,161.589 277.98,181.363 274.545,181.117 						"/>
						<polygon style="fill:#C3C2C2;" points="265.93,160.823 269.617,160.913 268.716,180.727 265.273,180.647 						"/>
						<polygon style="opacity:0;fill:#C3C2C2;" points="255.99,160.588 259.676,160.674 259.433,180.507 255.99,180.423 						"/>
					</g>
					<g>
						<polygon style="fill:#C3C2C2;" points="242.362,160.913 246.049,160.823 246.706,180.647 243.263,180.727 						"/>
						<polygon style="fill:#C3C2C2;" points="232.443,161.589 236.121,161.325 237.435,181.117 233.999,181.363 						"/>
						<polygon style="opacity:0;fill:#C3C2C2;" points="222.546,162.532 226.208,162.094 228.177,181.831 224.758,182.243 						"/>
					</g>
					<g>
						<polygon style="fill:#C3C2C2;" points="218.287,158.184 222.008,157.738 225.316,187.215 221.958,187.619 						"/>
						<polygon style="fill:#C3C2C2;" points="209.04,164.354 212.677,163.741 215.541,183.368 212.146,183.944 						"/>
						<polygon style="fill:#C3C2C2;" points="199.235,166.013 202.871,165.396 206.386,184.917 202.99,185.489 						"/>
						<polygon style="opacity:0;fill:#C3C2C2;" points="197.277,186.719 196.098,186.975 196.098,181.209 						"/>
					</g>
				</g>
			</g>
			<g>
				<circle style="fill:#DC4B58;" cx="255.153" cy="205.512" r="7.89"/>
				<polygon style="fill:#DC4B58;" points="255.153,157.863 252.752,206.993 255.153,206.993 257.554,206.993 				"/>
			</g>
		</g>
		<path style="fill:#D5D6D5;" d="M284.317,297.297v86.003h-56.635v-86.003c0-7.688,6.279-13.966,13.941-13.966h28.754
			c4.536,0,8.61,2.204,11.147,5.612C283.292,291.275,284.317,294.171,284.317,297.297z"/>
		<path style="fill:#D7D7D7;" d="M284.317,303.499v79.801h-56.635v-79.801c0-7.688,6.279-13.967,13.941-13.967h28.754
			c4.536,0,8.61,2.204,11.147,5.612C283.292,297.477,284.317,300.373,284.317,303.499z"/>
	</g>
	<path style="opacity:0.06;fill:#040000;" d="M416.614,150.784c-3.635-5.324-8.192-9.882-13.466-13.466
		c-7.936-5.428-17.459-8.601-27.648-8.601H256v254.583h28.317v-0.017h126.051c8.243,0,15.053-6.913,15.053-15.36l0.205-187.904
		C425.626,169.216,422.297,159.079,416.614,150.784z"/>
</g>
</svg>