<?xml version="1.0" encoding="iso-8859-1"?>
<!-- Generator: Adobe Illustrator 18.0.0, SVG Export Plug-In . SVG Version: 6.00 Build 0)  -->
<!DOCTYPE svg PUBLIC "-//W3C//DTD SVG 1.1//EN" "http://www.w3.org/Graphics/SVG/1.1/DTD/svg11.dtd">
<svg version="1.1" id="_x30_" xmlns="http://www.w3.org/2000/svg" xmlns:xlink="http://www.w3.org/1999/xlink" x="0px" y="0px"
	 viewBox="0 0 512 512" style="enable-background:new 0 0 512 512;" xml:space="preserve">
<g>
	<rect style="opacity:0;fill:#FFFFFF;" width="512" height="512"/>
	<path style="opacity:0.1;fill:#040000;" d="M512,297.063V512H295.424L115.968,332.544l-8.089-8.09
		c-3.789-10.547-6.605-30.515-7.424-54.374h-4.301c-6.809,0-12.288-5.478-12.288-12.237v-3.226c0-6.758,5.479-12.237,12.288-12.237
		h4.301c0.973-28.774,4.813-51.968,9.83-59.904l2.714-2.714c0.358-0.154,0.717-0.256,1.075-0.256h31.232
		c0.205,0,0.358,0,0.563,0.102c0.154-0.102,0.307-0.102,0.461-0.102c1.024,0,2.048,0.819,3.021,2.406
		c2.714-15.104,6.298-24.269,10.24-24.269h35.328c0.359,0,0.717,0.051,1.075,0.256c0.359-0.205,0.717-0.256,1.075-0.256
		c7.475,0,13.67,32.717,15.206,76.544l3.277,0.41c3.277,0,5.939,3.43,5.939,7.578v0.205h69.018v-0.205
		c0-4.148,2.662-7.578,5.939-7.578l3.277-0.41c1.536-43.827,7.731-76.544,15.206-76.544c0.359,0,0.717,0.051,1.075,0.256
		c0.358-0.205,0.717-0.256,1.075-0.256h35.328c3.789,0,7.27,8.448,9.933,22.477c0.051,0.256,0.102,0.563,0.153,0.819
		c0.051,0.307,0.103,0.614,0.205,0.922c0.461-0.768,0.922-1.331,1.434-1.69c0.205-0.205,0.41-0.307,0.614-0.409
		c0.307-0.154,0.614-0.256,0.922-0.256c0.103,0,0.154,0,0.205,0.051c0.102-0.051,0.102,0,0.205,0.051h0.051
		c0.051-0.051,0.102,0,0.153,0c0.051,0,0.102-0.051,0.102-0.051c0.103-0.051,0.205-0.051,0.307-0.051h27.75L512,297.063z"/>
	<g>
		<g>
			<g>
				<rect x="221.798" y="242.381" style="fill:#EBEBEB;" width="52.326" height="27.699"/>
				<path style="fill:#EBEBEB;" d="M255.949,254.618v3.226c0,6.758-5.478,12.237-12.288,12.237H96.153
					c-6.809,0-12.288-5.478-12.288-12.237v-3.226c0-6.758,5.479-12.237,12.288-12.237h147.507
					C250.47,242.381,255.949,247.859,255.949,254.618z"/>
				<path style="fill:#424242;" d="M159.181,256c0,4.813-0.102,9.523-0.205,14.08c-0.717,21.146-3.021,39.271-6.144,50.432
					c-1.126,3.891-2.355,6.912-3.635,8.96c-1.075,1.741-2.151,2.765-3.328,2.969c-0.205,0.103-0.358,0.103-0.563,0.103h-31.232
					c-2.201,0-4.301-2.918-6.195-8.09c-3.789-10.547-6.605-30.515-7.424-54.374c-0.103-4.557-0.205-9.267-0.205-14.08
					c0-4.659,0.051-9.216,0.205-13.619c0.973-28.774,4.813-51.968,9.83-59.904c0.871-1.382,1.792-2.355,2.714-2.714
					c0.358-0.154,0.717-0.256,1.075-0.256h31.232c0.205,0,0.358,0,0.563,0.102c1.178,0.205,2.253,1.229,3.328,2.97
					c1.28,2.048,2.509,5.12,3.635,9.011c3.123,11.264,5.427,29.491,6.144,50.79C159.13,246.784,159.181,251.341,159.181,256z"/>
				<path style="fill:#222323;" d="M158.362,256c0,4.813-0.051,9.523-0.205,14.08c-0.614,21.146-2.611,39.271-5.325,50.432
					c-1.075,4.301-2.253,7.577-3.482,9.626c-0.973,1.587-1.997,2.406-3.021,2.406c-0.154,0-0.307,0-0.461-0.103
					c-5.683-1.331-10.342-27.75-11.366-62.362c-0.154-4.557-0.205-9.267-0.205-14.08c0-4.659,0.051-9.216,0.205-13.619
					c0.973-34.816,5.632-61.44,11.366-62.771c0.154-0.102,0.307-0.102,0.461-0.102c1.024,0,2.048,0.819,3.021,2.406
					c1.229,2.048,2.407,5.325,3.482,9.677c2.765,11.264,4.762,29.491,5.325,50.79C158.31,246.784,158.362,251.341,158.362,256z"/>
				<g>
					<path style="fill:#424242;" d="M210.586,256c0,4.762-0.051,9.472-0.205,14.08c0,2.816-0.102,5.632-0.205,8.397
						c-1.536,41.421-7.219,72.755-14.182,75.674c-0.358,0.205-0.716,0.256-1.075,0.256H159.59c-3.943,0-7.526-9.165-10.24-24.269
						c-0.102-0.205-0.102-0.461-0.153-0.666c-2.663-15.053-4.557-35.891-5.018-59.392c-0.154-4.608-0.205-9.318-0.205-14.08
						c0-4.608,0.051-9.165,0.153-13.619c0.512-23.654,2.355-44.646,5.069-59.801c0.051-0.205,0.051-0.461,0.153-0.666
						c2.714-15.104,6.298-24.269,10.24-24.269h35.328c0.359,0,0.717,0.051,1.075,0.256c6.964,2.919,12.698,34.458,14.182,76.032
						c0.103,2.765,0.205,5.581,0.256,8.448C210.534,246.835,210.586,251.392,210.586,256z"/>
					<path style="fill:#222323;" d="M212.685,256c0,4.762-0.051,9.472-0.205,14.08c0,2.765-0.103,5.478-0.205,8.141
						c-1.588,43.674-7.783,76.186-15.206,76.186c-0.359,0-0.717-0.051-1.075-0.256c-7.424-3.123-13.414-38.554-14.387-84.071
						c-0.153-4.608-0.205-9.318-0.205-14.08c0-4.608,0.051-9.165,0.154-13.619c1.024-45.722,7.014-81.357,14.438-84.48
						c0.359-0.205,0.717-0.256,1.075-0.256c7.475,0,13.67,32.717,15.206,76.544c0.102,2.662,0.205,5.427,0.256,8.192
						C212.633,246.835,212.685,251.392,212.685,256z"/>
				</g>
				<rect x="218.88" y="242.381" style="opacity:0.1;fill:#040000;" width="9.933" height="27.699"/>
				<path style="fill:#EBEBEB;" d="M221.491,242.176v28.109c0,4.147-2.663,7.577-5.939,7.577l-3.277,0.358l-2.099,0.256
					l-15.616,1.843c-0.051,0-0.051,0-0.051,0c-0.205,0-0.307-0.153-0.307-0.409c0,0-0.87-2.714-1.434-9.831
					c-0.256-3.482-0.461-8.038-0.461-13.875c0-5.274,0.256-9.984,0.614-13.824c0.563-6.042,1.28-9.882,1.28-9.882
					c0-0.205,0.102-0.359,0.307-0.359c0-0.051,0-0.051,0.051-0.051l15.616,1.843l2.099,0.256l3.277,0.41
					C218.829,234.598,221.491,238.029,221.491,242.176z"/>
			</g>
			<g>
				<rect x="237.875" y="242.381" style="fill:#EBEBEB;" width="52.326" height="27.699"/>
				<path style="fill:#EBEBEB;" d="M428.134,254.618v3.226c0,6.758-5.479,12.237-12.288,12.237H268.339
					c-0.666,0-1.331-0.051-1.946-0.153c-5.888-0.922-10.342-5.99-10.342-12.083v-3.226c0-6.758,5.478-12.237,12.288-12.237h147.507
					C422.656,242.381,428.134,247.859,428.134,254.618z"/>
				<path style="fill:#424242;" d="M411.75,256c0,4.813-0.102,9.523-0.205,14.08c-0.051,1.127-0.103,2.202-0.154,3.328
					c0,1.075-0.051,2.15-0.153,3.226c-0.154,3.226-0.358,6.349-0.563,9.421c-0.154,1.536-0.256,3.021-0.41,4.454
					c-0.103,1.383-0.256,2.765-0.41,4.096c-0.614,6.042-1.433,11.571-2.304,16.384c-0.205,1.178-0.461,2.355-0.666,3.431
					c-1.843,8.499-4.045,14.438-6.502,16.896c-0.205,0.205-0.41,0.358-0.614,0.512c-0.564,0.461-1.229,0.717-1.843,0.717h-31.232
					c-0.103,0-0.205-0.051-0.307-0.051c-0.102,0-0.154,0-0.256-0.051c-0.051,0.051-0.103,0-0.154,0
					c-1.126-0.307-2.15-1.331-3.174-2.969c-1.28-2.048-2.509-5.069-3.584-8.96c-3.174-11.162-5.478-29.287-6.195-50.432
					c-0.102-4.557-0.205-9.267-0.205-14.08c0-4.659,0.051-9.216,0.205-13.619c0.717-21.299,3.021-39.527,6.195-50.79
					c1.075-3.891,2.304-6.963,3.584-9.011c1.024-1.639,2.048-2.663,3.174-2.97c0.051,0,0.103-0.051,0.154,0
					c0.102-0.051,0.153-0.051,0.256-0.051c0.103-0.051,0.205-0.051,0.307-0.051h31.232c0.205,0,0.41,0.051,0.614,0.102
					c0.154,0,0.256,0.051,0.358,0.103c0.871,0.307,1.69,1.075,2.458,2.201c0.256,0.307,0.461,0.666,0.666,1.024
					c0.819,1.434,1.638,3.226,2.355,5.427c0.205,0.512,0.358,1.024,0.512,1.587c1.28,4.096,2.406,9.165,3.328,15.104
					c0.154,0.768,0.256,1.536,0.358,2.304c0.154,0.922,0.307,1.894,0.41,2.867c0.358,2.304,0.614,4.762,0.87,7.271
					c0.103,0.922,0.205,1.894,0.307,2.867c0.205,1.946,0.358,3.942,0.512,5.939c0.154,2.048,0.307,4.096,0.409,6.247
					c0.205,3.226,0.358,6.502,0.461,9.83C411.699,246.784,411.75,251.341,411.75,256z"/>
				<path style="fill:#222323;" d="M377.702,256c0,4.813-0.051,9.523-0.205,14.08c-1.024,34.304-5.581,60.57-11.213,62.362
					c-0.051,0-0.102,0.051-0.153,0c-0.103,0.051-0.154,0.103-0.256,0.051c-0.051,0-0.103,0.051-0.205,0.051
					c-0.307,0-0.614-0.103-0.922-0.256c-0.205-0.102-0.41-0.205-0.614-0.41c-0.512-0.358-0.973-0.921-1.434-1.69l-0.051-0.051
					c-1.229-2.048-2.407-5.325-3.431-9.626c-2.765-11.162-4.762-29.287-5.376-50.432c-0.153-4.557-0.205-9.267-0.205-14.08
					c0-4.659,0.051-9.216,0.205-13.619c0.563-21.299,2.56-39.527,5.376-50.79c1.024-4.352,2.202-7.629,3.431-9.677l0.051-0.051
					c0.461-0.768,0.922-1.331,1.434-1.69c0.205-0.205,0.41-0.307,0.614-0.409c0.307-0.154,0.614-0.256,0.922-0.256
					c0.103,0,0.154,0,0.205,0.051c0.102-0.051,0.153,0,0.256,0.051c0.051-0.051,0.102,0,0.153,0
					c5.632,1.792,10.24,28.262,11.213,62.771C377.651,246.784,377.702,251.341,377.702,256z"/>
				<g>
					<path style="fill:#424242;" d="M368.026,256c0,4.762-0.051,9.472-0.205,14.08c-0.461,23.501-2.355,44.339-5.017,59.392
						c0,0.205-0.051,0.409-0.103,0.614c0,0.051-0.051,0.051-0.051,0.051c-0.051,0.614-0.154,1.229-0.307,1.792
						c-0.205,1.229-0.461,2.407-0.717,3.533c-0.205,0.819-0.358,1.638-0.563,2.458c-0.358,1.587-0.768,3.123-1.178,4.506
						c0,0,0,0.051,0,0.103c-0.409,1.331-0.819,2.56-1.178,3.686c-0.461,1.178-0.922,2.253-1.383,3.174
						c-0.409,0.922-0.87,1.741-1.331,2.406c-0.256,0.358-0.461,0.666-0.716,0.922c-0.205,0.307-0.461,0.512-0.666,0.717
						c-0.205,0.205-0.41,0.358-0.614,0.461c-0.154,0.102-0.307,0.205-0.461,0.256c-0.103,0.051-0.256,0.102-0.41,0.154
						c-0.205,0.051-0.461,0.102-0.716,0.102h-35.328c-0.359,0-0.717-0.051-1.075-0.256c-0.051,0-0.051,0-0.102-0.051
						c-6.912-3.174-12.544-34.407-14.08-75.622c-0.103-2.765-0.205-5.581-0.205-8.397c-0.153-4.608-0.205-9.318-0.205-14.08
						c0-4.608,0.051-9.165,0.153-13.619c0.051-2.663,0.103-5.274,0.205-7.834c0-0.205,0.051-0.409,0.051-0.614
						c1.485-41.574,7.219-73.113,14.182-76.032c0.358-0.205,0.717-0.256,1.075-0.256h35.328c3.789,0,7.27,8.448,9.933,22.477
						c0.051,0.256,0.102,0.563,0.153,0.819c0.103,0.307,0.154,0.614,0.154,0.973c0,0,0.051,0,0.051,0.051
						c0.051,0.205,0.103,0.409,0.103,0.614c2.714,15.155,4.557,36.147,5.069,59.801C367.974,246.835,368.026,251.392,368.026,256z"
						/>
					<path style="fill:#222323;" d="M330.598,256c0,4.762-0.051,9.472-0.205,14.08c-0.973,45.312-6.912,80.64-14.285,84.019
						c-0.051,0.051-0.051,0.051-0.102,0.051c-0.358,0.205-0.717,0.256-1.075,0.256c-0.256,0-0.461-0.051-0.717-0.102
						c-0.103-0.051-0.205-0.051-0.358-0.154c-0.205-0.051-0.358-0.154-0.512-0.256c-1.741-1.075-3.379-3.993-4.915-8.346
						c-0.768-2.253-1.536-4.915-2.253-7.936c0,0,0-0.051,0-0.102c-0.358-1.485-0.717-3.123-1.024-4.813
						c-0.512-2.56-0.973-5.325-1.434-8.192c-0.614-3.891-1.178-8.089-1.638-12.595c0-0.256-0.051-0.563-0.103-0.871
						c-0.153-1.946-0.358-3.942-0.563-5.99c-0.461-4.71-0.819-9.677-1.127-14.848c-0.051-1.331-0.153-2.611-0.205-3.942
						c-0.153-2.611-0.256-5.325-0.358-8.039c-0.102-2.662-0.205-5.376-0.205-8.141c-0.154-4.608-0.205-9.318-0.205-14.08
						c0-4.608,0.051-9.165,0.153-13.619c0.051-1.894,0.103-3.789,0.154-5.632c0-0.87,0.051-1.741,0.102-2.56
						c1.536-43.827,7.731-76.544,15.206-76.544c0.359,0,0.717,0.051,1.075,0.256c5.427,2.253,10.035,21.811,12.595,49.869
						c0.922,10.496,1.587,22.17,1.843,34.611C330.547,246.835,330.598,251.392,330.598,256z"/>
				</g>
				<rect x="283.187" y="242.381" style="opacity:0.1;fill:#040000;" width="9.933" height="27.699"/>
				<path style="fill:#EBEBEB;" d="M319.693,256.205c0,5.837-0.205,10.393-0.461,13.875c-0.563,7.117-1.434,9.831-1.434,9.831
					c0,0.256-0.103,0.409-0.307,0.409c0,0,0,0-0.051,0l-15.616-1.843l-2.099-0.256l-3.277-0.358c-3.277,0-5.939-3.43-5.939-7.577
					v-28.109c0-4.148,2.662-7.578,5.939-7.578l3.277-0.41l2.099-0.256l0.614-0.051l15.002-1.792c0.051,0,0.051,0,0.051,0.051
					c0.205,0,0.307,0.154,0.307,0.359c0,0,0.717,3.84,1.28,9.882C319.437,246.221,319.693,250.931,319.693,256.205z"/>
			</g>
		</g>
		<path style="opacity:0.1;fill:#040000;" d="M428.134,254.618v3.226c0,6.758-5.479,12.237-12.288,12.237h-4.301
			c-0.051,1.127-0.103,2.202-0.154,3.328c0,1.075-0.051,2.15-0.153,3.226c-0.154,3.226-0.358,6.349-0.563,9.421
			c-0.154,1.485-0.256,2.97-0.41,4.454c-0.103,1.383-0.256,2.765-0.41,4.096c-0.614,6.042-1.433,11.571-2.304,16.384
			c-0.205,1.178-0.461,2.355-0.666,3.431c-1.843,8.499-4.045,14.438-6.502,16.896c-0.205,0.205-0.41,0.358-0.614,0.512
			c-0.564,0.461-1.229,0.717-1.843,0.717h-31.232c-0.103,0-0.205-0.051-0.307-0.051c0,0-0.051-0.051-0.102-0.051
			c-0.051,0-0.102-0.051-0.153-0.051c-0.051,0-0.103,0.051-0.154,0.051c0,0-0.051,0.051-0.102,0.051
			c-0.051,0-0.103,0.051-0.205,0.051c-0.307,0-0.614-0.103-0.922-0.256c-0.205-0.102-0.41-0.205-0.614-0.41
			c-0.512-0.41-0.973-1.024-1.434-1.792c0,0.051,0,0.051,0,0.102c-0.153,0.615-0.256,1.178-0.358,1.741
			c-0.205,1.229-0.461,2.407-0.717,3.533c-0.205,0.819-0.358,1.638-0.563,2.458c-0.358,1.587-0.768,3.072-1.178,4.506
			c0,0,0,0.051,0,0.103c-0.409,1.331-0.819,2.56-1.178,3.686c-0.461,1.178-0.922,2.253-1.383,3.174
			c-0.409,0.922-0.87,1.741-1.331,2.406c-0.256,0.358-0.461,0.666-0.716,0.922c-0.205,0.307-0.461,0.512-0.666,0.717
			c-0.205,0.205-0.41,0.358-0.614,0.461c-0.154,0.102-0.307,0.205-0.461,0.256c-0.103,0.051-0.256,0.102-0.41,0.154
			c-0.205,0.051-0.461,0.102-0.716,0.102h-35.328c-0.307,0-0.666-0.154-0.973-0.307c-0.051,0-0.051-0.051-0.102-0.051
			c-0.051,0-0.051,0.051-0.102,0.051c-0.307,0.153-0.666,0.307-0.973,0.307c-0.256,0-0.461-0.051-0.717-0.102
			c-0.103-0.051-0.205-0.051-0.358-0.154c-0.205-0.051-0.358-0.154-0.512-0.256c-1.741-1.075-3.379-3.993-4.915-8.346
			c-0.768-2.253-1.536-4.915-2.253-7.936c0,0,0-0.051,0-0.102c-0.358-1.485-0.717-3.123-1.024-4.813
			c-0.512-2.56-0.973-5.325-1.434-8.192c-0.563-3.891-1.126-8.089-1.638-12.595c0-0.256-0.051-0.563-0.103-0.871
			c-0.153-1.946-0.358-3.942-0.563-5.99c-0.461-4.71-0.819-9.677-1.127-14.848c-0.051-1.331-0.153-2.611-0.205-3.942
			c-0.153-2.611-0.256-5.325-0.358-8.039l-3.277-0.358c-3.277,0-5.939-3.43-5.939-7.577v-0.205H266.24l27.699-27.699l5.683-5.632
			l2.15-2.202l0.666-0.666l26.163-26.112l32.666-32.666c0.358,1.587,0.717,3.277,1.075,5.018c0.051,0.256,0.102,0.563,0.153,0.819
			c0.051,0.307,0.103,0.614,0.205,0.922c0,0.051,0,0.051,0,0.102c0.461-0.768,0.922-1.382,1.434-1.792
			c0.205-0.205,0.41-0.307,0.614-0.409c0.307-0.154,0.614-0.256,0.922-0.256c0.103,0,0.154,0,0.205,0.051
			c0.051,0,0.102,0.051,0.102,0.051c0.051,0,0.103,0.051,0.154,0.051c0.051,0,0.102-0.051,0.153-0.051
			c0.051,0,0.102-0.051,0.102-0.051c0.103-0.051,0.205-0.051,0.307-0.051h31.232c0.205,0,0.41,0.051,0.614,0.102
			c0.154,0,0.256,0.051,0.358,0.103c0.871,0.307,1.69,1.075,2.458,2.201c0.256,0.307,0.461,0.666,0.666,1.024
			c0.819,1.434,1.638,3.226,2.355,5.427c0.205,0.512,0.358,1.024,0.512,1.587c1.28,4.096,2.406,9.165,3.328,15.104
			c0.154,0.768,0.256,1.536,0.358,2.304c0.154,0.922,0.307,1.894,0.41,2.867c0.358,2.304,0.614,4.762,0.87,7.271
			c0.103,0.922,0.205,1.894,0.307,2.867c0.205,1.946,0.358,3.942,0.512,5.939c0.154,2.048,0.307,4.147,0.409,6.247
			c0.205,3.226,0.358,6.502,0.461,9.83h4.301C422.656,242.381,428.134,247.859,428.134,254.618z"/>
	</g>
</g>
</svg>
